<?xml version="1.0" standalone="no"?>
<!DOCTYPE svg PUBLIC "-//W3C//DTD SVG 20010904//EN"
 "http://www.w3.org/TR/2001/REC-SVG-20010904/DTD/svg10.dtd">
<svg version="1.0" xmlns="http://www.w3.org/2000/svg"
 width="796.000000pt" height="796.000000pt" viewBox="0 0 796.000000 796.000000"
 preserveAspectRatio="xMidYMid meet">
<metadata>
Created by potrace 1.14, written by Peter Selinger 2001-2017
</metadata>
<g transform="translate(0.000000,796.000000) scale(0.100000,-0.100000)"
fill="#000000" stroke="none">
<path d="M3655 6613 c-54 -82 -102 -149 -106 -151 -5 -2 -9 -8 -9 -14 0 -5
-18 -35 -40 -66 -22 -31 -45 -64 -50 -72 -18 -26 -434 -645 -648 -963 -114
-169 -211 -315 -217 -325 -5 -9 -12 -19 -15 -22 -3 -3 -19 -25 -35 -50 -16
-25 -32 -47 -35 -50 -3 -3 -9 -13 -15 -22 -14 -24 -389 -582 -395 -588 -3 -3
-55 -79 -116 -170 -60 -91 -176 -262 -255 -380 -80 -118 -235 -348 -344 -510
-109 -162 -202 -296 -207 -298 -4 -2 -8 -8 -8 -13 0 -8 -158 -248 -170 -259
-3 -3 -17 -23 -30 -45 -13 -22 -26 -42 -29 -45 -13 -11 -71 -101 -71 -109 0
-5 -3 -11 -7 -13 -5 -1 -30 -37 -58 -78 -27 -41 -53 -76 -57 -78 -5 -2 -8 -8
-8 -13 0 -5 -19 -37 -43 -72 -46 -66 -286 -421 -521 -772 -78 -115 -147 -217
-155 -225 -13 -13 8 -15 189 -18 113 -1 209 -1 215 2 9 3 532 773 560 824 6
10 24 36 40 58 17 21 35 47 40 56 38 63 209 314 216 316 5 2 9 10 9 18 0 8 4
14 9 14 5 0 11 8 14 18 4 9 54 86 112 170 58 85 105 158 105 162 0 5 3 10 8
12 10 4 72 97 72 107 0 5 3 11 8 13 4 2 32 39 62 83 104 153 315 467 330 491
8 13 68 101 132 196 64 95 218 324 342 508 124 184 229 340 233 345 4 6 35 51
68 100 32 50 63 92 67 93 4 2 8 8 8 12 0 5 24 43 53 85 28 41 59 86 67 100 8
13 51 76 95 140 44 65 85 125 90 134 20 32 70 106 75 111 5 5 312 460 340 504
61 96 134 202 141 204 5 2 9 8 9 13 0 7 57 96 70 109 3 3 37 53 75 112 57 88
75 108 95 109 14 0 566 1 1228 2 l1203 2 102 -150 c55 -82 112 -166 126 -186
14 -20 32 -45 39 -55 173 -258 264 -390 277 -404 8 -9 15 -20 15 -25 0 -4 12
-24 27 -44 27 -35 58 -80 203 -296 41 -60 77 -112 80 -115 3 -3 35 -50 72
-105 37 -55 98 -146 137 -202 l70 -103 -72 -107 c-39 -60 -74 -110 -77 -113
-3 -3 -19 -25 -35 -50 -16 -25 -32 -47 -35 -50 -3 -3 -25 -36 -50 -74 -24 -38
-49 -74 -55 -80 -5 -7 -14 -19 -20 -28 -29 -49 -110 -163 -117 -166 -4 -2 -8
-8 -8 -13 0 -9 -36 -65 -50 -79 -6 -5 -70 -100 -171 -250 -35 -52 -69 -101
-76 -107 -9 -10 -199 -13 -864 -13 l-853 0 -28 -29 c-16 -17 -28 -32 -28 -35
0 -3 -21 -37 -47 -74 -27 -38 -52 -76 -58 -85 -28 -46 -312 -464 -327 -481
-10 -11 -20 -28 -24 -38 -3 -10 -10 -18 -15 -18 -5 0 -9 -4 -9 -9 0 -5 -74
-120 -165 -254 -91 -135 -162 -247 -158 -249 5 -2 97 -4 206 -3 230 1 193 -17
305 152 123 186 306 458 312 463 3 3 10 13 15 22 8 14 181 274 191 286 2 3
1319 5 1500 3 41 -1 42 -2 105 -98 35 -54 66 -102 68 -108 2 -5 8 -14 13 -20
5 -5 113 -167 240 -360 127 -192 267 -404 310 -469 l79 -119 -98 -146 c-54
-80 -100 -148 -103 -151 -3 -3 -41 -58 -84 -122 -44 -65 -84 -118 -90 -119
-15 -1 -4767 -1 -4788 0 -23 1 -23 12 2 39 11 12 20 25 20 30 0 4 8 17 18 28
9 11 22 28 27 37 6 9 100 150 210 312 110 163 205 305 211 316 6 11 21 31 33
45 11 13 18 24 15 24 -3 0 7 17 23 38 16 20 47 64 68 97 21 33 42 62 47 63 4
2 8 9 8 15 0 7 11 25 25 41 13 16 27 37 30 47 4 11 11 19 16 19 5 0 9 7 9 15
0 8 5 15 10 15 6 0 10 6 10 14 0 8 3 16 8 18 4 2 41 55 84 118 42 63 148 221
235 350 184 272 580 860 697 1035 45 66 84 124 89 130 4 5 18 26 31 46 44 67
210 314 218 324 5 6 61 89 125 185 64 96 120 177 125 178 4 2 8 7 8 12 0 5 70
112 155 238 85 127 155 233 155 236 0 4 -93 5 -207 4 l-207 -3 -148 -220 c-81
-121 -151 -224 -155 -230 -5 -5 -78 -113 -163 -240 -84 -126 -186 -277 -224
-335 -39 -58 -74 -106 -78 -108 -5 -2 -8 -10 -8 -18 0 -8 -4 -14 -10 -14 -5 0
-10 -7 -10 -15 0 -8 -4 -15 -10 -15 -5 0 -10 -6 -10 -14 0 -8 -3 -16 -7 -18
-5 -1 -39 -50 -77 -108 -38 -58 -73 -106 -78 -108 -4 -2 -8 -8 -8 -14 0 -6
-20 -38 -43 -72 -24 -33 -133 -194 -242 -356 -109 -162 -258 -383 -330 -490
-126 -186 -356 -527 -529 -785 -44 -66 -83 -122 -86 -125 -3 -3 -11 -17 -19
-32 -8 -16 -18 -28 -23 -28 -4 0 -8 -4 -8 -10 0 -5 -23 -41 -50 -80 -28 -39
-50 -74 -50 -79 0 -5 -3 -11 -7 -13 -5 -1 -46 -59 -92 -128 -46 -69 -156 -232
-245 -363 -89 -132 -166 -246 -171 -255 -6 -10 -29 -45 -53 -79 l-43 -63 2833
1 2833 0 60 94 c33 52 63 94 68 95 4 0 7 6 7 14 0 8 3 16 8 18 4 2 56 77 116
168 61 91 112 167 115 170 4 3 51 73 106 155 55 83 104 153 109 157 5 3 -24
57 -66 120 -41 62 -115 174 -164 248 -48 74 -92 137 -96 138 -4 2 -8 7 -8 12
0 5 -24 44 -52 87 -29 43 -57 86 -63 95 -5 9 -29 44 -52 78 -24 34 -43 66 -43
70 0 4 -9 15 -20 25 -11 10 -20 21 -20 25 0 4 -43 72 -95 151 -52 78 -95 144
-95 146 0 2 -5 9 -10 16 -19 23 -100 146 -100 152 0 6 53 87 72 110 10 12 189
273 291 425 39 58 74 107 77 110 3 3 29 41 59 85 106 159 196 290 201 295 6 6
141 204 155 227 6 10 16 23 23 31 6 7 12 16 12 18 0 3 -24 40 -53 82 -101 144
-222 323 -232 340 -5 10 -22 33 -37 53 -16 20 -28 41 -28 47 0 6 -4 12 -8 14
-5 2 -68 91 -141 198 -73 107 -175 257 -227 333 -52 76 -94 142 -94 147 0 5
-3 10 -8 12 -10 4 -76 99 -85 121 -3 9 -11 17 -17 17 -5 0 -10 6 -10 13 0 7
-9 23 -20 35 -11 12 -20 23 -20 26 0 8 -114 171 -122 174 -4 2 -8 10 -8 18 0
8 -4 14 -10 14 -5 0 -10 5 -10 11 0 6 -12 28 -27 48 -16 20 -32 44 -38 53 -5
9 -40 60 -77 113 -38 53 -68 100 -68 106 0 5 -4 9 -8 9 -5 0 -14 11 -20 25
l-12 25 -1413 0 -1414 0 -98 -147z"/>
</g>
</svg>
